<svg xmlns="http://www.w3.org/2000/svg" viewBox="0 0 326.16 377.03" style=""><defs><style>.cls-1,.cls-3{fill:#d9e1ec;}.cls-1{stroke:#36495e;stroke-miterlimit:10;stroke-width:6.16px;}.cls-2{fill:#35495e;}.cls-3{stroke:#a5abb3;stroke-linejoin:round;stroke-width:1.85px;}.cls-4{fill:#42b883;}</style></defs><title>logoSVG</title><g id="Layer_2" data-name="Layer 2"><g id="Layer_1-2" data-name="Layer 1"><path class="cls-1 ZwngJzJs_0" d="M3.08,94.49L164,3.54L323.08,94.49L323.08,280.47L164,373.46L3.08,279.66L3.08,94.49Z"></path><path class="cls-2 ZwngJzJs_1" d="M82,266.79a1.52,1.52,0,0,1,.91.81,1.55,1.55,0,0,1,.07,1.22L77.34,285h0l-.09.2,0,0-.11.18,0,0-.14.14,0,0-.16.14,0,0-.18.09h0l-.16.07h0l-.18,0h-.07l-.26,0-.26,0h-.07l-.18,0h0l-.16-.07h0l-.16-.09h0a.57.57,0,0,1-.16-.14l0,0-.12-.14,0,0-.11-.18,0,0-.09-.2h0l-5.67-16.15a1.55,1.55,0,0,1,.07-1.22,1.52,1.52,0,0,1,.91-.81,1.55,1.55,0,0,1,1.22.07,1.52,1.52,0,0,1,.81.91l4.17,11.87L80,267.76a1.52,1.52,0,0,1,.81-.91l.6-.28Z"></path><path class="cls-2 ZwngJzJs_2" d="M98.14,266.62a1.57,1.57,0,0,1,1.57,1.57V279.1a6.92,6.92,0,1,1-13.85,0V268.19a1.57,1.57,0,0,1,3.14,0V279.1a3.78,3.78,0,1,0,7.57,0V268.19a1.57,1.57,0,0,1,1.57-1.57Z"></path><path class="cls-2 ZwngJzJs_3" d="M115.4,282.82a1.51,1.51,0,0,1,1.12.47,1.55,1.55,0,0,1,.47,1.14,1.62,1.62,0,0,1-1.6,1.6h-9.8a1.62,1.62,0,0,1-1.6-1.6V268.21a1.52,1.52,0,0,1,.47-1.14,1.5,1.5,0,0,1,1.12-.47h0l9.79,0a1.55,1.55,0,0,1,1.14.47,1.58,1.58,0,0,1,.46,1.14,1.62,1.62,0,0,1-1.6,1.6h0l-8.17,0v4.91h5.9a1.58,1.58,0,0,1,1.14.46,1.6,1.6,0,0,1,0,2.27,1.58,1.58,0,0,1-1.14.46h-5.9v4.91Z"></path><path class="cls-2 ZwngJzJs_4" d="M133,285.42h0l-9.73-12.52v11.55a1.6,1.6,0,0,1-3.19,0V268.22a1.59,1.59,0,0,1,1.08-1.5,1.5,1.5,0,0,1,1,0,1.55,1.55,0,0,1,.8.55l9.73,12.53V268.22a1.53,1.53,0,0,1,.46-1.12,1.55,1.55,0,0,1,1.14-.47,1.62,1.62,0,0,1,1.6,1.6v16.24a.37.37,0,0,1,0,.08v.07a.37.37,0,0,1,0,.08.19.19,0,0,1,0,.08v.07a.22.22,0,0,1,0,.08l0,.07,0,.08,0,.07,0,.07,0,.08,0,0-.05.08,0,.05-.05.05-.05.05-.05.05-.07.05h0l-.2.14h0l-.22.09h0a.93.93,0,0,1-.23.05H134l-.14,0h-.05l-.11,0-.05,0-.11,0-.05,0-.09,0-.05,0-.09-.07-.05,0-.12-.11h0l-.05-.05Z"></path><path class="cls-2 ZwngJzJs_5" d="M148.91,286a9.73,9.73,0,1,1,6.88-2.86A9.33,9.33,0,0,1,148.91,286Zm0-16.24a6.52,6.52,0,1,0,4.62,1.91A6.27,6.27,0,0,0,148.91,269.79Z"></path><path class="cls-2 ZwngJzJs_6" d="M174.84,280.25a5.73,5.73,0,0,1-1.94,4.1,6.29,6.29,0,0,1-4.39,1.68,8.15,8.15,0,0,1-4-.95,5.13,5.13,0,0,1-2.67-3.3,1.56,1.56,0,0,1,.16-1.2,1.54,1.54,0,0,1,1-.73,1.57,1.57,0,0,1,1.21.16,1.54,1.54,0,0,1,.73,1,2.24,2.24,0,0,0,1.33,1.42,5.27,5.27,0,0,0,2.22.45,3.18,3.18,0,0,0,2.18-.8,2.63,2.63,0,0,0,1-1.95,1.68,1.68,0,0,0-.5-1.26,3.81,3.81,0,0,0-2.82-.92h-.07a6.83,6.83,0,0,1-5.08-1.91,4.74,4.74,0,0,1-1.35-3.59,5.74,5.74,0,0,1,1.94-4.11,6.26,6.26,0,0,1,4.39-1.68,8.16,8.16,0,0,1,4,.95,5.14,5.14,0,0,1,2.67,3.3,1.53,1.53,0,0,1-.18,1.21,1.49,1.49,0,0,1-1,.73,1.56,1.56,0,0,1-1.21-.16,1.54,1.54,0,0,1-.73-1,2.24,2.24,0,0,0-1.34-1.42,5.18,5.18,0,0,0-2.21-.45,3.24,3.24,0,0,0-2.19.8,2.68,2.68,0,0,0-1,1.95,1.73,1.73,0,0,0,.5,1.27,3.85,3.85,0,0,0,2.82.91h.07a6.8,6.8,0,0,1,5.08,1.92A4.72,4.72,0,0,1,174.84,280.25Z"></path><path class="cls-2 ZwngJzJs_7" d="M185.13,285.91a1.57,1.57,0,0,1-.87-.87,1.59,1.59,0,0,1,0-1.22L186,279.7h0l5-12a.84.84,0,0,1,.07-.14l0-.07.05-.07,0-.07.05-.05,0-.05.05-.07.05,0,.07-.05.05,0,.07-.05.05,0,.08,0,.09,0,0,0,.05,0,.09,0,.09,0h.68l.09,0h.05a1.1,1.1,0,0,1,.3.12l.05,0,.08.05.05,0,.07.05.05,0,.07.05s0,0,0,.05l.05.07,0,.05.05.07a.18.18,0,0,0,0,.07l0,.07a.92.92,0,0,1,.07.14l5,12h0l1.72,4.13a1.6,1.6,0,0,1-.87,2.08,1.6,1.6,0,0,1-.61.12,1.47,1.47,0,0,1-1.48-1l-1.3-3.14h-7.84l-1.3,3.14a1.47,1.47,0,0,1-1.47,1h-.31Zm9.91-7.19-2.61-6.28-2.6,6.28Z"></path><path class="cls-2 ZwngJzJs_8" d="M205.18,286a1.62,1.62,0,0,1-1.6-1.6V268.29a1.6,1.6,0,0,1,3.19,0v16.15a1.62,1.62,0,0,1-1.6,1.6Z"></path><path class="cls-2 ZwngJzJs_9" d="M224.19,272.24a5.19,5.19,0,0,1-1.11,3.24,5.81,5.81,0,0,1-2.82,2l3.07,6.23a1.61,1.61,0,0,1-.73,2.13,1.61,1.61,0,0,1-.7.16,1.47,1.47,0,0,1-1.42-.89l-3.59-7.27h-2.75v6.46a1.6,1.6,0,0,1-1.6,1.58,1.57,1.57,0,0,1-1.58-1.58V268.19a1.59,1.59,0,0,1,1.58-1.6h5.6a6,6,0,0,1,4.26,1.65A5.26,5.26,0,0,1,224.19,272.24Zm-5.93,2.45a3.05,3.05,0,0,0,1.95-.75,2.23,2.23,0,0,0,0-3.45,3,3,0,0,0-2-.72h-4v4.91Z"></path><path class="cls-2 ZwngJzJs_10" d="M239,282.82a1.51,1.51,0,0,1,1.12.47,1.55,1.55,0,0,1,.47,1.14A1.62,1.62,0,0,1,239,286h-9.8a1.62,1.62,0,0,1-1.6-1.6V268.21a1.52,1.52,0,0,1,.47-1.14,1.5,1.5,0,0,1,1.12-.47h0l9.79,0a1.55,1.55,0,0,1,1.14.47,1.58,1.58,0,0,1,.46,1.14,1.62,1.62,0,0,1-1.6,1.6h0l-8.17,0v4.91h5.9a1.58,1.58,0,0,1,1.14.46,1.6,1.6,0,0,1,0,2.27,1.58,1.58,0,0,1-1.14.46h-5.9v4.91Z"></path><path class="cls-2 ZwngJzJs_11" d="M255.9,280.25a5.73,5.73,0,0,1-1.94,4.1,6.29,6.29,0,0,1-4.39,1.68,8.15,8.15,0,0,1-4-.95,5.13,5.13,0,0,1-2.67-3.3,1.56,1.56,0,0,1,.16-1.2,1.54,1.54,0,0,1,1-.73,1.57,1.57,0,0,1,1.21.16,1.54,1.54,0,0,1,.73,1,2.24,2.24,0,0,0,1.33,1.42,5.27,5.27,0,0,0,2.22.45,3.18,3.18,0,0,0,2.18-.8,2.63,2.63,0,0,0,1-1.95,1.68,1.68,0,0,0-.5-1.26,3.81,3.81,0,0,0-2.82-.92h-.07a6.83,6.83,0,0,1-5.08-1.91,4.74,4.74,0,0,1-1.35-3.59,5.74,5.74,0,0,1,1.94-4.11,6.26,6.26,0,0,1,4.39-1.68,8.16,8.16,0,0,1,4,.95,5.14,5.14,0,0,1,2.67,3.3,1.53,1.53,0,0,1-.18,1.21,1.49,1.49,0,0,1-1,.73,1.56,1.56,0,0,1-1.21-.16,1.54,1.54,0,0,1-.73-1,2.24,2.24,0,0,0-1.34-1.42,5.18,5.18,0,0,0-2.21-.45,3.24,3.24,0,0,0-2.19.8,2.68,2.68,0,0,0-1,1.95,1.73,1.73,0,0,0,.5,1.27,3.85,3.85,0,0,0,2.82.91h.07a6.8,6.8,0,0,1,5.08,1.92A4.72,4.72,0,0,1,255.9,280.25Z"></path><path class="cls-2 ZwngJzJs_12" d="M101.44,311.35a.6.6,0,0,1-.17.43.59.59,0,0,1-.42.17.58.58,0,0,1-.6-.6v-13a.54.54,0,0,1,.44-.57.54.54,0,0,1,.67.27l5.92,9.78,5.92-9.78a.54.54,0,0,1,.66-.27.54.54,0,0,1,.44.57v13a.58.58,0,0,1-.18.43.57.57,0,0,1-.42.17.59.59,0,0,1-.42-.17.6.6,0,0,1-.17-.43V300.46l-5.33,8.8h0l0,0,0,0,0,0-.05,0h0l-.06,0-.05,0h-.34l0,0-.06,0h0l0,0,0,0,0,0,0,0h0l-5.33-8.8Z"></path><path class="cls-2 ZwngJzJs_13" d="M128.86,311.94a.61.61,0,0,1-.6-.6V298.29a.55.55,0,0,1,.18-.42.53.53,0,0,1,.42-.18l7.88,0a.55.55,0,0,1,.42.18.57.57,0,0,1,.18.42.58.58,0,0,1-.18.43.56.56,0,0,1-.42.17l-7.29,0v5.34h5.45a.6.6,0,0,1,0,1.19h-5.45v5.34h7.29a.6.6,0,0,1,0,1.19Z"></path><path class="cls-2 ZwngJzJs_14" d="M151,311.94a.61.61,0,0,1-.6-.6V298.29a.55.55,0,0,1,.18-.42.53.53,0,0,1,.42-.18l7.88,0a.55.55,0,0,1,.42.18.57.57,0,0,1,.18.42.58.58,0,0,1-.18.43.56.56,0,0,1-.42.17l-7.29,0v5.34h5.45a.6.6,0,0,1,0,1.19h-5.45v5.34h7.29a.6.6,0,0,1,0,1.19Z"></path><path class="cls-2 ZwngJzJs_15" d="M175.7,298.89h-3.92a.6.6,0,0,1-.43-.17.6.6,0,0,1,0-.83.58.58,0,0,1,.43-.18h9a.59.59,0,0,1,.42,1,.57.57,0,0,1-.42.17h-3.92v12.46a.58.58,0,0,1-.6.6.59.59,0,0,1-.42-.17.6.6,0,0,1-.17-.43Z"></path><path class="cls-2 ZwngJzJs_16" d="M202.69,297.74a.59.59,0,0,1,.42.17.57.57,0,0,1,.17.42v8.74a4.87,4.87,0,0,1-9.75,0v-8.74a.58.58,0,0,1,.59-.59.56.56,0,0,1,.41.17.57.57,0,0,1,.17.42v8.74a3.71,3.71,0,0,0,7.42,0v-8.74a.57.57,0,0,1,.17-.42A.55.55,0,0,1,202.69,297.74Z"></path><path class="cls-2 ZwngJzJs_17" d="M221.71,297.7a4.21,4.21,0,0,1,3,1.14,3.66,3.66,0,0,1,.07,5.39,4.23,4.23,0,0,1-2.8,1.2h-4.17v5.92a.6.6,0,0,1-1.19,0V298.3a.61.61,0,0,1,.6-.6Zm.08,6.55a3.08,3.08,0,0,0,2.06-.8,2.47,2.47,0,0,0,0-3.77,3.09,3.09,0,0,0-2.12-.78h-3.93v5.36Z"></path><path class="cls-3 ZwngJzJs_18" width="49.24" height="116.1" d="M38.56 134.18 L87.80000000000001 134.18 L87.80000000000001 250.28 L38.56 250.28 Z"></path><path class="cls-3 ZwngJzJs_19" width="40.63" height="11.53" d="M42.87 122.66 L83.5 122.66 L83.5 134.19 L42.87 134.19 Z"></path><path class="cls-3 ZwngJzJs_20" width="6.66" height="11.65" d="M45.46 141.73 L52.120000000000005 141.73 L52.120000000000005 153.38 L45.46 153.38 Z"></path><path class="cls-3 ZwngJzJs_21" d="M43.3,153.39L54.28,153.39"></path><path class="cls-3 ZwngJzJs_22" width="6.66" height="11.65" d="M59.85 141.73 L66.51 141.73 L66.51 153.38 L59.85 153.38 Z"></path><path class="cls-3 ZwngJzJs_23" d="M57.69,153.39L68.67,153.39"></path><path class="cls-3 ZwngJzJs_24" width="6.66" height="11.65" d="M74.24 141.73 L80.89999999999999 141.73 L80.89999999999999 153.38 L74.24 153.38 Z"></path><path class="cls-3 ZwngJzJs_25" d="M72.08,153.39L83.06,153.39"></path><path class="cls-3 ZwngJzJs_26" width="6.66" height="11.65" d="M45.46 163.32 L52.120000000000005 163.32 L52.120000000000005 174.97 L45.46 174.97 Z"></path><path class="cls-3 ZwngJzJs_27" d="M43.3,174.97L54.28,174.97"></path><path class="cls-3 ZwngJzJs_28" width="6.66" height="11.65" d="M59.85 163.32 L66.51 163.32 L66.51 174.97 L59.85 174.97 Z"></path><path class="cls-3 ZwngJzJs_29" d="M57.69,174.97L68.67,174.97"></path><path class="cls-3 ZwngJzJs_30" width="6.66" height="11.65" d="M74.24 163.32 L80.89999999999999 163.32 L80.89999999999999 174.97 L74.24 174.97 Z"></path><path class="cls-3 ZwngJzJs_31" d="M72.08,174.97L83.06,174.97"></path><path class="cls-3 ZwngJzJs_32" width="6.66" height="11.65" d="M45.46 184.9 L52.120000000000005 184.9 L52.120000000000005 196.55 L45.46 196.55 Z"></path><path class="cls-3 ZwngJzJs_33" d="M43.3,196.56L54.28,196.56"></path><path class="cls-3 ZwngJzJs_34" width="6.66" height="11.65" d="M59.85 184.9 L66.51 184.9 L66.51 196.55 L59.85 196.55 Z"></path><path class="cls-3 ZwngJzJs_35" d="M57.69,196.56L68.67,196.56"></path><path class="cls-3 ZwngJzJs_36" width="6.66" height="11.65" d="M74.24 184.9 L80.89999999999999 184.9 L80.89999999999999 196.55 L74.24 196.55 Z"></path><path class="cls-3 ZwngJzJs_37" d="M72.08,196.56L83.06,196.56"></path><path class="cls-3 ZwngJzJs_38" width="6.66" height="11.65" d="M45.46 206.49 L52.120000000000005 206.49 L52.120000000000005 218.14000000000001 L45.46 218.14000000000001 Z"></path><path class="cls-3 ZwngJzJs_39" d="M43.3,218.14L54.28,218.14"></path><path class="cls-3 ZwngJzJs_40" width="6.66" height="11.65" d="M59.85 206.49 L66.51 206.49 L66.51 218.14000000000001 L59.85 218.14000000000001 Z"></path><path class="cls-3 ZwngJzJs_41" d="M57.69,218.14L68.67,218.14"></path><path class="cls-3 ZwngJzJs_42" width="6.66" height="11.65" d="M74.24 206.49 L80.89999999999999 206.49 L80.89999999999999 218.14000000000001 L74.24 218.14000000000001 Z"></path><path class="cls-3 ZwngJzJs_43" d="M72.08,218.14L83.06,218.14"></path><path class="cls-3 ZwngJzJs_44" width="10.98" height="18.59" d="M57.69 231.69 L68.67 231.69 L68.67 250.28 L57.69 250.28 Z"></path><path class="cls-3 ZwngJzJs_45" width="8.26" height="17.45" d="M44.66 232.84 L52.919999999999995 232.84 L52.919999999999995 250.29 L44.66 250.29 Z"></path><path class="cls-3 ZwngJzJs_46" width="8.26" height="17.45" d="M73.44 232.84 L81.7 232.84 L81.7 250.29 L73.44 250.29 Z"></path><path class="cls-3 ZwngJzJs_47" d="M238.45,137.84L193.82,137.84L186,151.59L245.64,151.59L238.45,137.84Z"></path><path class="cls-3 ZwngJzJs_48" d="M196.15,151.59s0-8.11,8.09-8.11,8.09,8.11,8.09,8.11"></path><path class="cls-3 ZwngJzJs_49" d="M219.22,151.59s0-8.11,8.09-8.11,8.09,8.11,8.09,8.11"></path><path class="cls-3 ZwngJzJs_50" width="51.32" height="98.7" d="M190.16 151.59 L241.48 151.59 L241.48 250.29000000000002 L190.16 250.29000000000002 Z"></path><path class="cls-3 ZwngJzJs_51" d="M203.6,163.64a3.74,3.74,0,0,0-7.39,0h-.06v11h7.51v-11Z"></path><path class="cls-3 ZwngJzJs_52" d="M196.15,164.49L203.6,164.49"></path><path class="cls-3 ZwngJzJs_53" d="M219.78,163.64a3.74,3.74,0,0,0-7.39,0h-.06v11h7.51v-11Z"></path><path class="cls-3 ZwngJzJs_54" d="M212.33,164.49L219.78,164.49"></path><path class="cls-3 ZwngJzJs_55" d="M236,163.64a3.74,3.74,0,0,0-7.39,0h-.06v11H236v-11Z"></path><path class="cls-3 ZwngJzJs_56" d="M228.51,164.49L235.96,164.49"></path><path class="cls-3 ZwngJzJs_57" d="M203.6,183.84a3.74,3.74,0,0,0-7.39,0h-.06v11h7.51v-11Z"></path><path class="cls-3 ZwngJzJs_58" d="M196.15,184.68L203.6,184.68"></path><path class="cls-3 ZwngJzJs_59" d="M219.78,183.84a3.74,3.74,0,0,0-7.39,0h-.06v11h7.51v-11Z"></path><path class="cls-3 ZwngJzJs_60" d="M212.33,184.68L219.78,184.68"></path><path class="cls-3 ZwngJzJs_61" d="M236,183.84a3.74,3.74,0,0,0-7.39,0h-.06v11H236v-11Z"></path><path class="cls-3 ZwngJzJs_62" d="M228.51,184.68L235.96,184.68"></path><path class="cls-3 ZwngJzJs_63" d="M203.6,204a3.74,3.74,0,0,0-7.39,0h-.06v11h7.51V204Z"></path><path class="cls-3 ZwngJzJs_64" d="M196.15,204.88L203.6,204.88"></path><path class="cls-3 ZwngJzJs_65" d="M219.78,204a3.74,3.74,0,0,0-7.39,0h-.06v11h7.51V204Z"></path><path class="cls-3 ZwngJzJs_66" d="M212.33,204.88L219.78,204.88"></path><path class="cls-3 ZwngJzJs_67" d="M236,204a3.74,3.74,0,0,0-7.39,0h-.06v11H236V204Z"></path><path class="cls-3 ZwngJzJs_68" d="M228.51,204.88L235.96,204.88"></path><path class="cls-3 ZwngJzJs_69" d="M203.6,224.23a3.74,3.74,0,0,0-7.39,0h-.06v11h7.51v-11Z"></path><path class="cls-3 ZwngJzJs_70" d="M196.15,225.08L203.6,225.08"></path><path class="cls-3 ZwngJzJs_71" d="M219.78,224.23a3.74,3.74,0,0,0-7.39,0h-.06v11h7.51v-11Z"></path><path class="cls-3 ZwngJzJs_72" d="M212.33,225.08L219.78,225.08"></path><path class="cls-3 ZwngJzJs_73" d="M236,224.23a3.74,3.74,0,0,0-7.39,0h-.06v11H236v-11Z"></path><path class="cls-3 ZwngJzJs_74" d="M228.51,225.08L235.96,225.08"></path><path class="cls-3 ZwngJzJs_75" width="12.48" height="10.19" d="M195.09 240.1 L207.57 240.1 L207.57 250.29 L195.09 250.29 Z"></path><path class="cls-3 ZwngJzJs_76" width="16.5" height="9.62" d="M207.57 240.1 L224.07 240.1 L224.07 249.72 L207.57 249.72 Z"></path><path class="cls-3 ZwngJzJs_77" width="11.95" height="9.62" d="M224.07 240.1 L236.01999999999998 240.1 L236.01999999999998 249.72 L224.07 249.72 Z"></path><path class="cls-3 ZwngJzJs_78" width="56.52" height="38.4" d="M237.34 211.89 L293.86 211.89 L293.86 250.29 L237.34 250.29 Z"></path><path class="cls-3 ZwngJzJs_79" d="M261.54,139.71L261.54,135.53L269.79,135.53L269.79,139.71"></path><path class="cls-3 ZwngJzJs_80" width="4.31" height="5.77" d="M263.41 129.76 L267.72 129.76 L267.72 135.53 L263.41 135.53 Z"></path><path class="cls-3 ZwngJzJs_81" d="M264.44,129.76L265.57,101.83L266.8,129.76"></path><path class="cls-3 ZwngJzJs_82" d="M251.45,182.73V155.47s-1.54-16.17,14.32-16.17,14.48,16.32,14.48,16.32l0,27.1"></path><path class="cls-3 ZwngJzJs_83" width="7.78" height="15.4" d="M262.05 167.33 L269.83 167.33 L269.83 182.73000000000002 L262.05 182.73000000000002 Z"></path><path class="cls-3 ZwngJzJs_84" d="M246.22,200.9V188.58s-.47-5.85,5.23-5.85h29.72c5,0,4.47,6.7,4.47,6.7l0,11.47"></path><path class="cls-3 ZwngJzJs_85" d="M246.22,188.58L285.65,188.58"></path><path class="cls-3 ZwngJzJs_86" d="M235.18,206.24L266.18,191.25L296.37,206.24L235.18,206.24Z"></path><path class="cls-3 ZwngJzJs_87" d="M235.18,206.24L237.34,211.89L294.11,211.89L296.37,206.24L235.18,206.24Z"></path><path class="cls-3 ZwngJzJs_88" width="5.34" height="38.4" d="M242.67 211.89 L248.01 211.89 L248.01 250.29 L242.67 250.29 Z"></path><path class="cls-3 ZwngJzJs_89" width="5.34" height="38.4" d="M256.4 211.89 L261.73999999999995 211.89 L261.73999999999995 250.29 L256.4 250.29 Z"></path><path class="cls-3 ZwngJzJs_90" width="5.34" height="38.4" d="M270.12 211.89 L275.46 211.89 L275.46 250.29 L270.12 250.29 Z"></path><path class="cls-3 ZwngJzJs_91" width="5.34" height="38.4" d="M283.84 211.89 L289.17999999999995 211.89 L289.17999999999995 250.29 L283.84 250.29 Z"></path><path class="cls-3 ZwngJzJs_92" d="M251.45,161.02L280.25,161.02"></path><path class="cls-3 ZwngJzJs_93" d="M255.22,150.31L255.22,161.02"></path><path class="cls-3 ZwngJzJs_94" d="M259.69,151.7L259.69,161.02"></path><path class="cls-3 ZwngJzJs_95" d="M263.39,153.39L263.39,161.02"></path><path class="cls-3 ZwngJzJs_96" d="M275.95,150.31L275.95,161.02"></path><path class="cls-3 ZwngJzJs_97" d="M271.48,151.7L271.48,161.02"></path><path class="cls-3 ZwngJzJs_98" d="M267.78,153.39L267.78,161.02"></path><path class="cls-3 ZwngJzJs_99" d="M101.03,250.28L107.42,77.96L118.49,56.35L129.59,77.97L136.73,250.28L101.03,250.28Z"></path><path class="cls-3 ZwngJzJs_100" d="M118.49,56.71L118.49,250.28"></path><path class="cls-3 ZwngJzJs_101" d="M107.67,77.48L129.23,77.27"></path><path class="cls-3 ZwngJzJs_102" width="48.52" height="71.74" d="M64.49 178.54 L113.00999999999999 178.54 L113.00999999999999 250.27999999999997 L64.49 250.27999999999997 Z"></path><path class="cls-3 ZwngJzJs_103" d="M111.35,169.42L66.98,169.42L59.52,178.54L117.99,178.54L111.35,169.42Z"></path><path class="cls-3 ZwngJzJs_104" width="9.12" height="11.13" d="M71.34 187.11 L80.46000000000001 187.11 L80.46000000000001 198.24 L71.34 198.24 Z"></path><path class="cls-3 ZwngJzJs_105" d="M71.54,192.12L80.25,192.12"></path><path class="cls-3 ZwngJzJs_106" width="9.12" height="11.13" d="M97.05 187.11 L106.17 187.11 L106.17 198.24 L97.05 198.24 Z"></path><path class="cls-3 ZwngJzJs_107" d="M97.25,192.12L105.96,192.12"></path><path class="cls-3 ZwngJzJs_108" width="9.12" height="11.13" d="M97.05 205.77 L106.17 205.77 L106.17 216.9 L97.05 216.9 Z"></path><path class="cls-3 ZwngJzJs_109" d="M97.25,210.78L105.96,210.78"></path><path class="cls-3 ZwngJzJs_110" width="9.12" height="11.13" d="M71.34 205.77 L80.46000000000001 205.77 L80.46000000000001 216.9 L71.34 216.9 Z"></path><path class="cls-3 ZwngJzJs_111" d="M71.54,210.78L80.25,210.78"></path><path class="cls-3 ZwngJzJs_112" width="9.12" height="11.13" d="M71.34 223.4 L80.46000000000001 223.4 L80.46000000000001 234.53 L71.34 234.53 Z"></path><path class="cls-3 ZwngJzJs_113" d="M71.54,228.41L80.25,228.41"></path><path class="cls-3 ZwngJzJs_114" width="9.12" height="11.13" d="M97.05 223.4 L106.17 223.4 L106.17 234.53 L97.05 234.53 Z"></path><path class="cls-3 ZwngJzJs_115" d="M97.25,228.41L105.96,228.41"></path><path class="cls-3 ZwngJzJs_116" d="M85.02,178.54L85.02,250.28"></path><path class="cls-3 ZwngJzJs_117" d="M92.28,178.54L92.28,250.28"></path><path class="cls-4 ZwngJzJs_118" d="M142.92,251.54L163.08,216.62L183.24,251.54L250.38,251.54L163.08,100.33L75.78,251.54L142.92,251.54Z"></path><path class="cls-2 ZwngJzJs_119" d="M142.92,251.54L163.08,216.62L183.24,251.54L215.46,251.54L163.08,160.82L110.7,251.54L142.92,251.54Z"></path></g></g><style>.ZwngJzJs_0{stroke-dasharray:1110 1112;stroke-dashoffset:1111;animation:ZwngJzJs_draw 3333ms linear 0ms forwards;}.ZwngJzJs_1{stroke-dasharray:73 75;stroke-dashoffset:74;animation:ZwngJzJs_draw 3333ms linear 14ms forwards;}.ZwngJzJs_2{stroke-dasharray:88 90;stroke-dashoffset:89;animation:ZwngJzJs_draw 3333ms linear 28ms forwards;}.ZwngJzJs_3{stroke-dasharray:94 96;stroke-dashoffset:95;animation:ZwngJzJs_draw 3333ms linear 42ms forwards;}.ZwngJzJs_4{stroke-dasharray:106 108;stroke-dashoffset:107;animation:ZwngJzJs_draw 3333ms linear 56ms forwards;}.ZwngJzJs_5{stroke-dasharray:103 105;stroke-dashoffset:104;animation:ZwngJzJs_draw 3333ms linear 70ms forwards;}.ZwngJzJs_6{stroke-dasharray:93 95;stroke-dashoffset:94;animation:ZwngJzJs_draw 3333ms linear 84ms forwards;}.ZwngJzJs_7{stroke-dasharray:82 84;stroke-dashoffset:83;animation:ZwngJzJs_draw 3333ms linear 98ms forwards;}.ZwngJzJs_8{stroke-dasharray:43 45;stroke-dashoffset:44;animation:ZwngJzJs_draw 3333ms linear 112ms forwards;}.ZwngJzJs_9{stroke-dasharray:96 98;stroke-dashoffset:97;animation:ZwngJzJs_draw 3333ms linear 126ms forwards;}.ZwngJzJs_10{stroke-dasharray:94 96;stroke-dashoffset:95;animation:ZwngJzJs_draw 3333ms linear 140ms forwards;}.ZwngJzJs_11{stroke-dasharray:93 95;stroke-dashoffset:94;animation:ZwngJzJs_draw 3333ms linear 154ms forwards;}.ZwngJzJs_12{stroke-dasharray:99 101;stroke-dashoffset:100;animation:ZwngJzJs_draw 3333ms linear 168ms forwards;}.ZwngJzJs_13{stroke-dasharray:73 75;stroke-dashoffset:74;animation:ZwngJzJs_draw 3333ms linear 182ms forwards;}.ZwngJzJs_14{stroke-dasharray:73 75;stroke-dashoffset:74;animation:ZwngJzJs_draw 3333ms linear 196ms forwards;}.ZwngJzJs_15{stroke-dasharray:48 50;stroke-dashoffset:49;animation:ZwngJzJs_draw 3333ms linear 210ms forwards;}.ZwngJzJs_16{stroke-dasharray:66 68;stroke-dashoffset:67;animation:ZwngJzJs_draw 3333ms linear 224ms forwards;}.ZwngJzJs_17{stroke-dasharray:65 67;stroke-dashoffset:66;animation:ZwngJzJs_draw 3333ms linear 238ms forwards;}.ZwngJzJs_18{stroke-dasharray:331 333;stroke-dashoffset:332;animation:ZwngJzJs_draw 3333ms linear 252ms forwards;}.ZwngJzJs_19{stroke-dasharray:105 107;stroke-dashoffset:106;animation:ZwngJzJs_draw 3333ms linear 266ms forwards;}.ZwngJzJs_20{stroke-dasharray:37 39;stroke-dashoffset:38;animation:ZwngJzJs_draw 3333ms linear 280ms forwards;}.ZwngJzJs_21{stroke-dasharray:11 13;stroke-dashoffset:12;animation:ZwngJzJs_draw 3333ms linear 294ms forwards;}.ZwngJzJs_22{stroke-dasharray:37 39;stroke-dashoffset:38;animation:ZwngJzJs_draw 3333ms linear 308ms forwards;}.ZwngJzJs_23{stroke-dasharray:11 13;stroke-dashoffset:12;animation:ZwngJzJs_draw 3333ms linear 322ms forwards;}.ZwngJzJs_24{stroke-dasharray:37 39;stroke-dashoffset:38;animation:ZwngJzJs_draw 3333ms linear 336ms forwards;}.ZwngJzJs_25{stroke-dasharray:11 13;stroke-dashoffset:12;animation:ZwngJzJs_draw 3333ms linear 350ms forwards;}.ZwngJzJs_26{stroke-dasharray:37 39;stroke-dashoffset:38;animation:ZwngJzJs_draw 3333ms linear 364ms forwards;}.ZwngJzJs_27{stroke-dasharray:11 13;stroke-dashoffset:12;animation:ZwngJzJs_draw 3333ms linear 378ms forwards;}.ZwngJzJs_28{stroke-dasharray:37 39;stroke-dashoffset:38;animation:ZwngJzJs_draw 3333ms linear 392ms forwards;}.ZwngJzJs_29{stroke-dasharray:11 13;stroke-dashoffset:12;animation:ZwngJzJs_draw 3333ms linear 406ms forwards;}.ZwngJzJs_30{stroke-dasharray:37 39;stroke-dashoffset:38;animation:ZwngJzJs_draw 3333ms linear 420ms forwards;}.ZwngJzJs_31{stroke-dasharray:11 13;stroke-dashoffset:12;animation:ZwngJzJs_draw 3333ms linear 434ms forwards;}.ZwngJzJs_32{stroke-dasharray:37 39;stroke-dashoffset:38;animation:ZwngJzJs_draw 3333ms linear 448ms forwards;}.ZwngJzJs_33{stroke-dasharray:11 13;stroke-dashoffset:12;animation:ZwngJzJs_draw 3333ms linear 462ms forwards;}.ZwngJzJs_34{stroke-dasharray:37 39;stroke-dashoffset:38;animation:ZwngJzJs_draw 3333ms linear 476ms forwards;}.ZwngJzJs_35{stroke-dasharray:11 13;stroke-dashoffset:12;animation:ZwngJzJs_draw 3333ms linear 490ms forwards;}.ZwngJzJs_36{stroke-dasharray:37 39;stroke-dashoffset:38;animation:ZwngJzJs_draw 3333ms linear 504ms forwards;}.ZwngJzJs_37{stroke-dasharray:11 13;stroke-dashoffset:12;animation:ZwngJzJs_draw 3333ms linear 518ms forwards;}.ZwngJzJs_38{stroke-dasharray:37 39;stroke-dashoffset:38;animation:ZwngJzJs_draw 3333ms linear 532ms forwards;}.ZwngJzJs_39{stroke-dasharray:11 13;stroke-dashoffset:12;animation:ZwngJzJs_draw 3333ms linear 546ms forwards;}.ZwngJzJs_40{stroke-dasharray:37 39;stroke-dashoffset:38;animation:ZwngJzJs_draw 3333ms linear 560ms forwards;}.ZwngJzJs_41{stroke-dasharray:11 13;stroke-dashoffset:12;animation:ZwngJzJs_draw 3333ms linear 574ms forwards;}.ZwngJzJs_42{stroke-dasharray:37 39;stroke-dashoffset:38;animation:ZwngJzJs_draw 3333ms linear 588ms forwards;}.ZwngJzJs_43{stroke-dasharray:11 13;stroke-dashoffset:12;animation:ZwngJzJs_draw 3333ms linear 602ms forwards;}.ZwngJzJs_44{stroke-dasharray:60 62;stroke-dashoffset:61;animation:ZwngJzJs_draw 3333ms linear 616ms forwards;}.ZwngJzJs_45{stroke-dasharray:52 54;stroke-dashoffset:53;animation:ZwngJzJs_draw 3333ms linear 630ms forwards;}.ZwngJzJs_46{stroke-dasharray:52 54;stroke-dashoffset:53;animation:ZwngJzJs_draw 3333ms linear 644ms forwards;}.ZwngJzJs_47{stroke-dasharray:136 138;stroke-dashoffset:137;animation:ZwngJzJs_draw 3333ms linear 658ms forwards;}.ZwngJzJs_48{stroke-dasharray:26 28;stroke-dashoffset:27;animation:ZwngJzJs_draw 3333ms linear 672ms forwards;}.ZwngJzJs_49{stroke-dasharray:26 28;stroke-dashoffset:27;animation:ZwngJzJs_draw 3333ms linear 686ms forwards;}.ZwngJzJs_50{stroke-dasharray:301 303;stroke-dashoffset:302;animation:ZwngJzJs_draw 3333ms linear 700ms forwards;}.ZwngJzJs_51{stroke-dasharray:41 43;stroke-dashoffset:42;animation:ZwngJzJs_draw 3333ms linear 714ms forwards;}.ZwngJzJs_52{stroke-dasharray:8 10;stroke-dashoffset:9;animation:ZwngJzJs_draw 3333ms linear 728ms forwards;}.ZwngJzJs_53{stroke-dasharray:41 43;stroke-dashoffset:42;animation:ZwngJzJs_draw 3333ms linear 742ms forwards;}.ZwngJzJs_54{stroke-dasharray:8 10;stroke-dashoffset:9;animation:ZwngJzJs_draw 3333ms linear 756ms forwards;}.ZwngJzJs_55{stroke-dasharray:41 43;stroke-dashoffset:42;animation:ZwngJzJs_draw 3333ms linear 770ms forwards;}.ZwngJzJs_56{stroke-dasharray:8 10;stroke-dashoffset:9;animation:ZwngJzJs_draw 3333ms linear 784ms forwards;}.ZwngJzJs_57{stroke-dasharray:41 43;stroke-dashoffset:42;animation:ZwngJzJs_draw 3333ms linear 798ms forwards;}.ZwngJzJs_58{stroke-dasharray:8 10;stroke-dashoffset:9;animation:ZwngJzJs_draw 3333ms linear 812ms forwards;}.ZwngJzJs_59{stroke-dasharray:41 43;stroke-dashoffset:42;animation:ZwngJzJs_draw 3333ms linear 826ms forwards;}.ZwngJzJs_60{stroke-dasharray:8 10;stroke-dashoffset:9;animation:ZwngJzJs_draw 3333ms linear 840ms forwards;}.ZwngJzJs_61{stroke-dasharray:41 43;stroke-dashoffset:42;animation:ZwngJzJs_draw 3333ms linear 854ms forwards;}.ZwngJzJs_62{stroke-dasharray:8 10;stroke-dashoffset:9;animation:ZwngJzJs_draw 3333ms linear 868ms forwards;}.ZwngJzJs_63{stroke-dasharray:41 43;stroke-dashoffset:42;animation:ZwngJzJs_draw 3333ms linear 882ms forwards;}.ZwngJzJs_64{stroke-dasharray:8 10;stroke-dashoffset:9;animation:ZwngJzJs_draw 3333ms linear 896ms forwards;}.ZwngJzJs_65{stroke-dasharray:41 43;stroke-dashoffset:42;animation:ZwngJzJs_draw 3333ms linear 910ms forwards;}.ZwngJzJs_66{stroke-dasharray:8 10;stroke-dashoffset:9;animation:ZwngJzJs_draw 3333ms linear 924ms forwards;}.ZwngJzJs_67{stroke-dasharray:41 43;stroke-dashoffset:42;animation:ZwngJzJs_draw 3333ms linear 938ms forwards;}.ZwngJzJs_68{stroke-dasharray:8 10;stroke-dashoffset:9;animation:ZwngJzJs_draw 3333ms linear 952ms forwards;}.ZwngJzJs_69{stroke-dasharray:41 43;stroke-dashoffset:42;animation:ZwngJzJs_draw 3333ms linear 966ms forwards;}.ZwngJzJs_70{stroke-dasharray:8 10;stroke-dashoffset:9;animation:ZwngJzJs_draw 3333ms linear 980ms forwards;}.ZwngJzJs_71{stroke-dasharray:41 43;stroke-dashoffset:42;animation:ZwngJzJs_draw 3333ms linear 994ms forwards;}.ZwngJzJs_72{stroke-dasharray:8 10;stroke-dashoffset:9;animation:ZwngJzJs_draw 3333ms linear 1008ms forwards;}.ZwngJzJs_73{stroke-dasharray:41 43;stroke-dashoffset:42;animation:ZwngJzJs_draw 3333ms linear 1022ms forwards;}.ZwngJzJs_74{stroke-dasharray:8 10;stroke-dashoffset:9;animation:ZwngJzJs_draw 3333ms linear 1036ms forwards;}.ZwngJzJs_75{stroke-dasharray:46 48;stroke-dashoffset:47;animation:ZwngJzJs_draw 3333ms linear 1050ms forwards;}.ZwngJzJs_76{stroke-dasharray:53 55;stroke-dashoffset:54;animation:ZwngJzJs_draw 3333ms linear 1064ms forwards;}.ZwngJzJs_77{stroke-dasharray:44 46;stroke-dashoffset:45;animation:ZwngJzJs_draw 3333ms linear 1078ms forwards;}.ZwngJzJs_78{stroke-dasharray:190 192;stroke-dashoffset:191;animation:ZwngJzJs_draw 3333ms linear 1092ms forwards;}.ZwngJzJs_79{stroke-dasharray:17 19;stroke-dashoffset:18;animation:ZwngJzJs_draw 3333ms linear 1106ms forwards;}.ZwngJzJs_80{stroke-dasharray:21 23;stroke-dashoffset:22;animation:ZwngJzJs_draw 3333ms linear 1120ms forwards;}.ZwngJzJs_81{stroke-dasharray:56 58;stroke-dashoffset:57;animation:ZwngJzJs_draw 3333ms linear 1134ms forwards;}.ZwngJzJs_82{stroke-dasharray:104 106;stroke-dashoffset:105;animation:ZwngJzJs_draw 3333ms linear 1148ms forwards;}.ZwngJzJs_83{stroke-dasharray:47 49;stroke-dashoffset:48;animation:ZwngJzJs_draw 3333ms linear 1162ms forwards;}.ZwngJzJs_84{stroke-dasharray:72 74;stroke-dashoffset:73;animation:ZwngJzJs_draw 3333ms linear 1176ms forwards;}.ZwngJzJs_85{stroke-dasharray:40 42;stroke-dashoffset:41;animation:ZwngJzJs_draw 3333ms linear 1190ms forwards;}.ZwngJzJs_86{stroke-dasharray:130 132;stroke-dashoffset:131;animation:ZwngJzJs_draw 3333ms linear 1204ms forwards;}.ZwngJzJs_87{stroke-dasharray:131 133;stroke-dashoffset:132;animation:ZwngJzJs_draw 3333ms linear 1218ms forwards;}.ZwngJzJs_88{stroke-dasharray:88 90;stroke-dashoffset:89;animation:ZwngJzJs_draw 3333ms linear 1232ms forwards;}.ZwngJzJs_89{stroke-dasharray:88 90;stroke-dashoffset:89;animation:ZwngJzJs_draw 3333ms linear 1246ms forwards;}.ZwngJzJs_90{stroke-dasharray:88 90;stroke-dashoffset:89;animation:ZwngJzJs_draw 3333ms linear 1260ms forwards;}.ZwngJzJs_91{stroke-dasharray:88 90;stroke-dashoffset:89;animation:ZwngJzJs_draw 3333ms linear 1274ms forwards;}.ZwngJzJs_92{stroke-dasharray:29 31;stroke-dashoffset:30;animation:ZwngJzJs_draw 3333ms linear 1288ms forwards;}.ZwngJzJs_93{stroke-dasharray:11 13;stroke-dashoffset:12;animation:ZwngJzJs_draw 3333ms linear 1302ms forwards;}.ZwngJzJs_94{stroke-dasharray:10 12;stroke-dashoffset:11;animation:ZwngJzJs_draw 3333ms linear 1316ms forwards;}.ZwngJzJs_95{stroke-dasharray:8 10;stroke-dashoffset:9;animation:ZwngJzJs_draw 3333ms linear 1330ms forwards;}.ZwngJzJs_96{stroke-dasharray:11 13;stroke-dashoffset:12;animation:ZwngJzJs_draw 3333ms linear 1344ms forwards;}.ZwngJzJs_97{stroke-dasharray:10 12;stroke-dashoffset:11;animation:ZwngJzJs_draw 3333ms linear 1358ms forwards;}.ZwngJzJs_98{stroke-dasharray:8 10;stroke-dashoffset:9;animation:ZwngJzJs_draw 3333ms linear 1372ms forwards;}.ZwngJzJs_99{stroke-dasharray:430 432;stroke-dashoffset:431;animation:ZwngJzJs_draw 3333ms linear 1386ms forwards;}.ZwngJzJs_100{stroke-dasharray:194 196;stroke-dashoffset:195;animation:ZwngJzJs_draw 3333ms linear 1400ms forwards;}.ZwngJzJs_101{stroke-dasharray:22 24;stroke-dashoffset:23;animation:ZwngJzJs_draw 3333ms linear 1414ms forwards;}.ZwngJzJs_102{stroke-dasharray:241 243;stroke-dashoffset:242;animation:ZwngJzJs_draw 3333ms linear 1428ms forwards;}.ZwngJzJs_103{stroke-dasharray:126 128;stroke-dashoffset:127;animation:ZwngJzJs_draw 3333ms linear 1442ms forwards;}.ZwngJzJs_104{stroke-dasharray:41 43;stroke-dashoffset:42;animation:ZwngJzJs_draw 3333ms linear 1456ms forwards;}.ZwngJzJs_105{stroke-dasharray:9 11;stroke-dashoffset:10;animation:ZwngJzJs_draw 3333ms linear 1470ms forwards;}.ZwngJzJs_106{stroke-dasharray:41 43;stroke-dashoffset:42;animation:ZwngJzJs_draw 3333ms linear 1484ms forwards;}.ZwngJzJs_107{stroke-dasharray:9 11;stroke-dashoffset:10;animation:ZwngJzJs_draw 3333ms linear 1498ms forwards;}.ZwngJzJs_108{stroke-dasharray:41 43;stroke-dashoffset:42;animation:ZwngJzJs_draw 3333ms linear 1512ms forwards;}.ZwngJzJs_109{stroke-dasharray:9 11;stroke-dashoffset:10;animation:ZwngJzJs_draw 3333ms linear 1526ms forwards;}.ZwngJzJs_110{stroke-dasharray:41 43;stroke-dashoffset:42;animation:ZwngJzJs_draw 3333ms linear 1540ms forwards;}.ZwngJzJs_111{stroke-dasharray:9 11;stroke-dashoffset:10;animation:ZwngJzJs_draw 3333ms linear 1554ms forwards;}.ZwngJzJs_112{stroke-dasharray:41 43;stroke-dashoffset:42;animation:ZwngJzJs_draw 3333ms linear 1568ms forwards;}.ZwngJzJs_113{stroke-dasharray:9 11;stroke-dashoffset:10;animation:ZwngJzJs_draw 3333ms linear 1582ms forwards;}.ZwngJzJs_114{stroke-dasharray:41 43;stroke-dashoffset:42;animation:ZwngJzJs_draw 3333ms linear 1596ms forwards;}.ZwngJzJs_115{stroke-dasharray:9 11;stroke-dashoffset:10;animation:ZwngJzJs_draw 3333ms linear 1610ms forwards;}.ZwngJzJs_116{stroke-dasharray:72 74;stroke-dashoffset:73;animation:ZwngJzJs_draw 3333ms linear 1624ms forwards;}.ZwngJzJs_117{stroke-dasharray:72 74;stroke-dashoffset:73;animation:ZwngJzJs_draw 3333ms linear 1638ms forwards;}.ZwngJzJs_118{stroke-dasharray:565 567;stroke-dashoffset:566;animation:ZwngJzJs_draw 3333ms linear 1652ms forwards;}.ZwngJzJs_119{stroke-dasharray:355 357;stroke-dashoffset:356;animation:ZwngJzJs_draw 3333ms linear 1666ms forwards;}@keyframes ZwngJzJs_draw{100%{stroke-dashoffset:0;}}@keyframes ZwngJzJs_fade{0%{stroke-opacity:1;}95.65217391304348%{stroke-opacity:1;}100%{stroke-opacity:0;}}</style></svg>